<?xml version="1.0" encoding="UTF-8"?>
<svg xmlns="http://www.w3.org/2000/svg" width="1200" height="800" viewBox="0 0 1200 800" fill="none">
  <defs>
    <linearGradient id="bg-3" x1="0" y1="0" x2="1" y2="1">
      <stop offset="0%" stop-color="#10ac84"/>
      <stop offset="48%" stop-color="#1dd1a1"/>
      <stop offset="100%" stop-color="#48dbfb"/>
    </linearGradient>
    <radialGradient id="orb-3" cx="50%" cy="35%" r="70%">
      <stop offset="0%" stop-color="#ffffff" stop-opacity="0.95"/>
      <stop offset="40%" stop-color="#54a0ff" stop-opacity="0.42"/>
      <stop offset="100%" stop-color="#000000" stop-opacity="0"/>
    </radialGradient>
    <filter id="blur-3">
      <feGaussianBlur stdDeviation="28"/>
    </filter>
    <filter id="shadow-3" x="-20%" y="-20%" width="140%" height="140%">
      <feDropShadow dx="0" dy="18" stdDeviation="24" flood-color="#0f172a" flood-opacity="0.28"/>
    </filter>
  </defs>
  <rect width="1200" height="800" rx="28" fill="url(#bg-3)"/>
  <rect width="1200" height="800" rx="28" fill="rgba(9, 14, 32, 0.25)"/>
  <g filter="url(#blur-3)"><circle cx="1004" cy="244" r="215" fill="#54a0ff" opacity="0.14"/><circle cx="772" cy="358" r="269" fill="#10ac84" opacity="0.21000000000000002"/><circle cx="451" cy="91" r="238" fill="#1dd1a1" opacity="0.28"/><circle cx="474" cy="323" r="197" fill="#48dbfb" opacity="0.35000000000000003"/></g>
  <g opacity="0.95"><line x1="-80" y1="40" x2="1280" y2="160" stroke="#10ac84" stroke-width="2" opacity="0.18"/><line x1="-80" y1="96" x2="1280" y2="216" stroke="#1dd1a1" stroke-width="2" opacity="0.22"/><line x1="-80" y1="152" x2="1280" y2="272" stroke="#48dbfb" stroke-width="2" opacity="0.26"/><line x1="-80" y1="208" x2="1280" y2="328" stroke="#54a0ff" stroke-width="2" opacity="0.18"/><line x1="-80" y1="264" x2="1280" y2="384" stroke="#10ac84" stroke-width="2" opacity="0.22"/><line x1="-80" y1="320" x2="1280" y2="440" stroke="#1dd1a1" stroke-width="2" opacity="0.26"/><line x1="-80" y1="376" x2="1280" y2="496" stroke="#48dbfb" stroke-width="2" opacity="0.18"/><line x1="-80" y1="432" x2="1280" y2="552" stroke="#54a0ff" stroke-width="2" opacity="0.22"/><line x1="-80" y1="488" x2="1280" y2="608" stroke="#10ac84" stroke-width="2" opacity="0.26"/><line x1="-80" y1="544" x2="1280" y2="664" stroke="#1dd1a1" stroke-width="2" opacity="0.18"/><line x1="-80" y1="600" x2="1280" y2="720" stroke="#48dbfb" stroke-width="2" opacity="0.22"/><line x1="-80" y1="656" x2="1280" y2="776" stroke="#54a0ff" stroke-width="2" opacity="0.26"/></g>
  <g opacity="0.85"><rect x="182" y="60" width="265" height="45" rx="22.5" fill="none" stroke="#1dd1a1" stroke-width="4" opacity="0.22" transform="rotate(0 314.5 82.5)"/><rect x="261" y="388" width="239" height="64" rx="32" fill="none" stroke="#48dbfb" stroke-width="4" opacity="0.25" transform="rotate(0 380.5 420)"/><rect x="739" y="117" width="173" height="61" rx="30.5" fill="none" stroke="#54a0ff" stroke-width="4" opacity="0.28" transform="rotate(0 825.5 147.5)"/><rect x="76" y="531" width="153" height="77" rx="38.5" fill="none" stroke="#10ac84" stroke-width="4" opacity="0.31" transform="rotate(0 152.5 569.5)"/><rect x="854" y="236" width="280" height="64" rx="32" fill="none" stroke="#1dd1a1" stroke-width="4" opacity="0.33999999999999997" transform="rotate(0 994 268)"/><rect x="396" y="305" width="182" height="71" rx="35.5" fill="none" stroke="#48dbfb" stroke-width="4" opacity="0.37" transform="rotate(0 487 340.5)"/></g>
  <g filter="url(#shadow-3)">
    <rect x="100" y="96" width="1000" height="520" rx="38" fill="rgba(255,255,255,0.10)" stroke="rgba(255,255,255,0.24)" stroke-width="2"/>
    <rect x="138" y="156" width="924" height="130" rx="28" fill="rgba(10,14,27,0.42)"/>
    <rect x="168" y="188" width="360" height="64" rx="32" fill="rgba(255,255,255,0.16)"/>
    <text x="348" y="232" text-anchor="middle" font-family="Inter, Arial, sans-serif" font-size="48" font-weight="800" fill="#ffffff" letter-spacing="2">WD</text>
    <text x="620" y="232" text-anchor="middle" font-family="Inter, Arial, sans-serif" font-size="24" font-weight="600" fill="rgba(255,255,255,0.90)">Governance</text>
  </g>
  <g opacity="0.7"><rect x="140" y="520" width="159" height="33" rx="16.5" fill="#48dbfb" opacity="0.28" transform="rotate(-17 219.5 536.5)"/><rect x="320" y="542" width="198" height="36" rx="18" fill="#54a0ff" opacity="0.35000000000000003" transform="rotate(-17 419 560)"/><rect x="500" y="557" width="163" height="26" rx="13" fill="#10ac84" opacity="0.42000000000000004" transform="rotate(-17 581.5 570)"/><rect x="680" y="511" width="104" height="41" rx="20.5" fill="#1dd1a1" opacity="0.49000000000000005" transform="rotate(-17 732 531.5)"/><rect x="860" y="533" width="192" height="40" rx="20" fill="#48dbfb" opacity="0.56" transform="rotate(-17 956 553)"/></g>
  <circle cx="960" cy="150" r="115" fill="url(#orb-3)" opacity="0.9"/>
  <circle cx="210" cy="620" r="90" fill="#54a0ff" opacity="0.18" filter="url(#blur-3)"/>
  <circle cx="980" cy="620" r="130" fill="#ffffff" opacity="0.08" filter="url(#blur-3)"/>
</svg>