<?xml version="1.0" encoding="UTF-8"?>
<svg xmlns="http://www.w3.org/2000/svg" width="1200" height="800" viewBox="0 0 1200 800" fill="none">
  <defs>
    <linearGradient id="bg-15" x1="0" y1="0" x2="1" y2="1">
      <stop offset="0%" stop-color="#ffeaa7"/>
      <stop offset="48%" stop-color="#fab1a0"/>
      <stop offset="100%" stop-color="#ff7675"/>
    </linearGradient>
    <radialGradient id="orb-15" cx="50%" cy="35%" r="70%">
      <stop offset="0%" stop-color="#ffffff" stop-opacity="0.95"/>
      <stop offset="40%" stop-color="#e84393" stop-opacity="0.42"/>
      <stop offset="100%" stop-color="#000000" stop-opacity="0"/>
    </radialGradient>
    <filter id="blur-15">
      <feGaussianBlur stdDeviation="28"/>
    </filter>
    <filter id="shadow-15" x="-20%" y="-20%" width="140%" height="140%">
      <feDropShadow dx="0" dy="18" stdDeviation="24" flood-color="#0f172a" flood-opacity="0.28"/>
    </filter>
  </defs>
  <rect width="1200" height="800" rx="28" fill="url(#bg-15)"/>
  <rect width="1200" height="800" rx="28" fill="rgba(9, 14, 32, 0.25)"/>
  <g filter="url(#blur-15)"><circle cx="568" cy="464" r="171" fill="#e84393" opacity="0.14"/><circle cx="95" cy="572" r="204" fill="#ffeaa7" opacity="0.21000000000000002"/><circle cx="226" cy="93" r="92" fill="#fab1a0" opacity="0.28"/><circle cx="355" cy="526" r="269" fill="#ff7675" opacity="0.35000000000000003"/></g>
  <g opacity="0.95"><line x1="-80" y1="40" x2="1280" y2="160" stroke="#ffeaa7" stroke-width="2" opacity="0.18"/><line x1="-80" y1="96" x2="1280" y2="216" stroke="#fab1a0" stroke-width="2" opacity="0.22"/><line x1="-80" y1="152" x2="1280" y2="272" stroke="#ff7675" stroke-width="2" opacity="0.26"/><line x1="-80" y1="208" x2="1280" y2="328" stroke="#e84393" stroke-width="2" opacity="0.18"/><line x1="-80" y1="264" x2="1280" y2="384" stroke="#ffeaa7" stroke-width="2" opacity="0.22"/><line x1="-80" y1="320" x2="1280" y2="440" stroke="#fab1a0" stroke-width="2" opacity="0.26"/><line x1="-80" y1="376" x2="1280" y2="496" stroke="#ff7675" stroke-width="2" opacity="0.18"/><line x1="-80" y1="432" x2="1280" y2="552" stroke="#e84393" stroke-width="2" opacity="0.22"/><line x1="-80" y1="488" x2="1280" y2="608" stroke="#ffeaa7" stroke-width="2" opacity="0.26"/><line x1="-80" y1="544" x2="1280" y2="664" stroke="#fab1a0" stroke-width="2" opacity="0.18"/><line x1="-80" y1="600" x2="1280" y2="720" stroke="#ff7675" stroke-width="2" opacity="0.22"/><line x1="-80" y1="656" x2="1280" y2="776" stroke="#e84393" stroke-width="2" opacity="0.26"/></g>
  <g opacity="0.85"><rect x="810" y="226" width="121" height="49" rx="24.5" fill="none" stroke="#fab1a0" stroke-width="4" opacity="0.22" transform="rotate(-37 870.5 250.5)"/><rect x="238" y="297" width="277" height="77" rx="38.5" fill="none" stroke="#ff7675" stroke-width="4" opacity="0.25" transform="rotate(-37 376.5 335.5)"/><rect x="775" y="96" width="231" height="57" rx="28.5" fill="none" stroke="#e84393" stroke-width="4" opacity="0.28" transform="rotate(-37 890.5 124.5)"/><rect x="455" y="503" width="245" height="54" rx="27" fill="none" stroke="#ffeaa7" stroke-width="4" opacity="0.31" transform="rotate(-37 577.5 530)"/><rect x="155" y="67" width="133" height="76" rx="38" fill="none" stroke="#fab1a0" stroke-width="4" opacity="0.33999999999999997" transform="rotate(-37 221.5 105)"/><rect x="930" y="149" width="166" height="76" rx="38" fill="none" stroke="#ff7675" stroke-width="4" opacity="0.37" transform="rotate(-37 1013 187)"/></g>
  <g filter="url(#shadow-15)">
    <rect x="100" y="96" width="1000" height="520" rx="38" fill="rgba(255,255,255,0.10)" stroke="rgba(255,255,255,0.24)" stroke-width="2"/>
    <rect x="138" y="156" width="924" height="130" rx="28" fill="rgba(10,14,27,0.42)"/>
    <rect x="168" y="188" width="360" height="64" rx="32" fill="rgba(255,255,255,0.16)"/>
    <text x="348" y="232" text-anchor="middle" font-family="Inter, Arial, sans-serif" font-size="48" font-weight="800" fill="#ffffff" letter-spacing="2">GH</text>
    <text x="620" y="232" text-anchor="middle" font-family="Inter, Arial, sans-serif" font-size="24" font-weight="600" fill="rgba(255,255,255,0.90)">Structured Hiring</text>
  </g>
  <g opacity="0.7"><rect x="140" y="502" width="188" height="41" rx="20.5" fill="#ff7675" opacity="0.28" transform="rotate(-15 234 522.5)"/><rect x="320" y="503" width="106" height="41" rx="20.5" fill="#e84393" opacity="0.35000000000000003" transform="rotate(-15 373 523.5)"/><rect x="500" y="557" width="150" height="20" rx="10" fill="#ffeaa7" opacity="0.42000000000000004" transform="rotate(-15 575 567)"/><rect x="680" y="521" width="130" height="40" rx="20" fill="#fab1a0" opacity="0.49000000000000005" transform="rotate(-15 745 541)"/><rect x="860" y="522" width="97" height="35" rx="17.5" fill="#ff7675" opacity="0.56" transform="rotate(-15 908.5 539.5)"/></g>
  <circle cx="960" cy="150" r="115" fill="url(#orb-15)" opacity="0.9"/>
  <circle cx="210" cy="620" r="90" fill="#e84393" opacity="0.18" filter="url(#blur-15)"/>
  <circle cx="980" cy="620" r="130" fill="#ffffff" opacity="0.08" filter="url(#blur-15)"/>
</svg>